<svg id="svg" version="1.1" xmlns="http://www.w3.org/2000/svg" xmlns:xlink="http://www.w3.org/1999/xlink" width="400" height="400" viewBox="0, 0, 400,400"><g id="svgg"><path id="path0" d="M141.406 126.404 C 140.869 126.501,138.896 126.848,137.021 127.175 C 129.552 128.479,120.527 131.986,112.573 136.676 C 111.410 137.361,110.260 137.774,109.865 137.647 C 109.369 137.487,109.320 137.527,109.686 137.790 C 110.063 138.061,109.764 138.434,108.514 139.252 C 105.932 140.942,102.093 143.996,98.466 147.246 C 96.656 148.868,94.898 150.156,94.560 150.109 C 94.165 150.054,94.125 150.102,94.449 150.244 C 94.780 150.390,93.953 151.514,92.046 153.509 C 89.116 156.576,83.189 163.802,82.411 165.254 C 82.181 165.685,81.854 165.952,81.686 165.848 C 81.518 165.744,81.376 165.871,81.370 166.130 C 81.365 166.390,80.129 168.535,78.624 170.898 C 75.859 175.239,71.954 182.700,70.301 186.799 C 69.806 188.025,69.228 188.921,69.015 188.790 C 68.801 188.657,68.752 188.749,68.905 188.997 C 69.056 189.242,68.629 191.159,67.954 193.257 C 60.102 217.679,64.817 240.514,80.163 252.385 C 92.129 261.643,107.191 263.652,132.617 259.383 C 133.906 259.167,135.576 259.073,136.328 259.174 C 137.375 259.315,137.466 259.287,136.719 259.056 C 135.963 258.822,136.684 258.592,139.902 258.041 C 142.190 257.648,144.283 257.464,144.552 257.630 C 144.841 257.809,144.944 257.774,144.804 257.546 C 144.520 257.087,154.018 255.278,154.912 255.621 C 155.241 255.747,155.414 255.696,155.298 255.508 C 155.181 255.320,155.919 255.047,156.938 254.902 C 157.956 254.757,161.222 254.198,164.196 253.658 C 167.169 253.119,169.839 252.769,170.128 252.880 C 170.416 252.990,170.708 252.933,170.776 252.751 C 170.901 252.414,185.455 249.831,204.688 246.732 C 223.148 243.757,226.499 243.288,227.423 243.548 C 228.121 243.745,228.190 243.710,227.734 243.391 C 227.274 243.069,227.426 242.979,228.441 242.975 C 229.205 242.971,229.635 243.129,229.492 243.359 C 229.129 243.947,229.733 243.829,230.230 243.214 C 230.665 242.678,235.215 242.007,259.961 238.826 C 265.977 238.053,272.533 237.394,274.531 237.363 C 276.529 237.331,277.759 237.190,277.265 237.051 C 276.375 236.799,276.375 236.796,277.344 236.757 C 277.881 236.735,280.781 236.454,283.789 236.132 C 289.698 235.500,307.395 233.849,315.137 233.208 C 337.776 231.335,345.659 230.777,347.465 230.921 C 348.389 230.995,349.063 230.923,348.963 230.762 C 348.864 230.601,349.046 230.469,349.368 230.469 C 349.690 230.469,350.063 230.645,350.195 230.859 C 350.328 231.074,351.086 231.225,351.879 231.195 L 353.320 231.139 351.758 230.859 L 350.195 230.580 351.645 230.524 C 353.198 230.465,353.134 230.572,354.145 226.367 C 354.300 225.723,354.619 225.020,354.855 224.805 C 355.090 224.590,355.222 224.443,355.148 224.479 C 355.074 224.515,354.670 224.201,354.250 223.781 C 353.830 223.362,353.332 223.114,353.142 223.232 C 352.952 223.349,349.838 223.529,346.222 223.632 C 330.636 224.075,325.469 224.261,316.992 224.683 C 312.051 224.929,306.250 225.145,304.102 225.163 C 301.953 225.181,300.107 225.293,300.000 225.413 C 299.893 225.532,295.234 225.937,289.648 226.312 C 264.261 228.019,240.758 230.251,218.359 233.084 C 212.236 233.859,206.409 234.510,205.410 234.531 C 204.411 234.553,203.655 234.671,203.731 234.795 C 203.806 234.919,201.020 235.415,197.539 235.897 C 192.333 236.619,178.881 238.760,174.023 239.640 C 158.409 242.469,151.226 243.784,150.627 243.924 C 149.782 244.122,149.647 244.253,153.516 241.116 C 156.732 238.507,161.292 233.917,164.287 230.273 C 168.942 224.610,169.473 223.712,167.929 224.116 C 167.477 224.234,166.994 224.174,166.855 223.982 C 166.715 223.789,164.140 223.720,161.107 223.828 L 155.613 224.023 154.302 225.586 C 145.691 235.845,132.431 243.934,119.984 246.519 C 115.954 247.356,105.193 248.033,105.561 247.426 C 105.680 247.229,104.704 247.048,103.377 247.021 C 98.622 246.924,87.023 241.754,87.412 239.905 C 87.471 239.625,87.340 239.506,87.121 239.641 C 86.402 240.086,82.749 235.734,80.702 231.994 C 75.961 223.334,74.766 211.010,77.580 199.805 C 78.808 194.912,80.624 189.854,80.976 190.341 C 81.209 190.662,81.247 190.585,81.094 190.110 C 80.769 189.110,83.616 182.634,84.090 183.292 C 84.338 183.635,84.375 183.562,84.210 183.057 C 83.994 182.393,86.421 177.344,86.956 177.344 C 87.066 177.344,87.047 177.520,86.914 177.734 C 86.781 177.949,86.878 178.125,87.128 178.125 C 87.394 178.125,87.479 177.852,87.332 177.471 C 87.005 176.618,92.020 168.991,92.651 169.381 C 92.918 169.546,92.981 169.476,92.811 169.201 C 92.383 168.508,92.981 167.766,93.445 168.415 C 93.733 168.818,93.770 168.780,93.602 168.257 C 92.880 166.016,112.637 147.510,114.513 148.670 C 114.780 148.835,114.859 148.778,114.706 148.531 C 114.373 147.991,117.028 146.340,117.631 146.713 C 117.895 146.875,117.986 146.828,117.845 146.600 C 117.222 145.592,128.592 140.979,135.156 139.576 C 140.221 138.495,149.549 138.584,153.711 139.754 C 157.621 140.853,160.594 142.186,160.277 142.699 C 160.137 142.926,160.234 142.967,160.509 142.797 C 161.845 141.971,170.470 149.969,169.659 151.281 C 169.521 151.504,169.600 151.566,169.836 151.420 C 170.957 150.727,174.609 160.898,174.609 164.711 L 174.609 166.406 181.095 166.406 L 187.581 166.406 187.308 163.184 C 186.494 153.605,184.477 147.588,179.858 140.961 C 178.714 139.320,177.900 137.855,178.049 137.706 C 178.198 137.557,178.141 137.493,177.922 137.565 C 177.703 137.637,176.773 137.001,175.856 136.153 C 173.033 133.544,170.330 131.677,167.100 130.105 C 165.398 129.277,164.238 128.519,164.522 128.420 C 164.807 128.321,164.512 128.242,163.867 128.244 C 163.223 128.246,161.289 127.850,159.570 127.365 C 156.529 126.507,144.400 125.865,141.406 126.404 M310.059 234.260 C 310.542 234.353,311.333 234.353,311.816 234.260 C 312.300 234.167,311.904 234.091,310.938 234.091 C 309.971 234.091,309.575 234.167,310.059 234.260 " stroke="none" fill="#9edb41" fill-rule="evenodd"></path><path id="path1" d="M122.563 160.433 C 123.049 160.526,123.752 160.522,124.126 160.425 C 124.499 160.327,124.102 160.250,123.242 160.255 C 122.383 160.259,122.077 160.339,122.563 160.433 M116.327 164.037 C 115.211 165.742,114.176 167.063,114.029 166.971 C 113.881 166.880,113.784 167.111,113.814 167.485 C 113.843 167.858,113.647 168.120,113.379 168.066 C 113.110 168.013,112.911 168.101,112.937 168.262 C 113.061 169.047,112.850 169.552,112.490 169.330 C 112.270 169.194,112.115 169.227,112.146 169.405 C 112.283 170.192,112.077 170.729,111.723 170.511 C 111.497 170.371,111.440 170.539,111.585 170.918 C 111.721 171.273,111.660 171.677,111.448 171.817 C 111.237 171.956,110.273 173.256,109.307 174.706 C 108.340 176.155,107.450 177.242,107.329 177.121 C 107.208 177.000,107.136 177.220,107.168 177.611 C 107.200 178.001,107.028 178.283,106.784 178.238 C 106.541 178.193,106.365 178.456,106.394 178.824 C 106.422 179.191,106.213 179.444,105.928 179.385 C 105.643 179.326,105.519 179.453,105.652 179.668 C 105.925 180.110,103.371 184.101,103.032 183.761 C 102.911 183.641,102.839 183.861,102.871 184.251 C 102.903 184.642,102.731 184.924,102.487 184.879 C 102.244 184.833,102.068 185.097,102.097 185.465 C 102.125 185.832,101.916 186.085,101.631 186.025 C 101.347 185.966,101.222 186.093,101.355 186.308 C 101.650 186.786,94.572 197.503,94.059 197.354 C 93.857 197.295,93.800 197.421,93.933 197.636 C 94.226 198.110,93.005 200.069,92.580 199.806 C 92.412 199.702,92.300 199.924,92.329 200.297 C 92.359 200.671,92.184 200.940,91.940 200.894 C 91.697 200.849,91.521 201.113,91.550 201.480 C 91.578 201.848,91.369 202.100,91.084 202.041 C 90.800 201.982,90.676 202.111,90.810 202.327 C 91.085 202.772,85.649 211.178,85.168 211.050 C 84.997 211.005,84.881 211.269,84.909 211.636 C 84.938 212.004,84.762 212.268,84.519 212.222 C 84.275 212.177,84.100 212.441,84.128 212.808 C 84.156 213.176,83.960 213.433,83.691 213.379 C 83.423 213.325,83.224 213.413,83.249 213.574 C 83.379 214.393,83.155 214.860,82.752 214.611 C 82.472 214.438,82.407 214.504,82.582 214.786 C 82.736 215.036,82.483 215.771,82.020 216.421 L 81.179 217.603 90.010 217.564 C 94.867 217.542,98.756 217.386,98.652 217.219 C 98.372 216.766,100.218 214.415,100.589 214.751 C 100.763 214.910,100.780 214.820,100.626 214.551 C 100.342 214.059,101.273 212.341,101.630 212.698 C 101.736 212.804,101.823 212.665,101.823 212.390 C 101.823 212.115,102.115 211.444,102.472 210.899 L 103.122 209.908 113.437 209.934 C 119.495 209.950,123.662 209.815,123.534 209.608 C 123.413 209.410,123.540 209.392,123.822 209.566 C 124.202 209.802,124.269 210.706,124.090 213.240 C 123.937 215.428,123.984 216.397,124.226 216.016 C 124.513 215.562,124.599 215.673,124.603 216.504 L 124.609 217.578 131.883 217.578 L 139.156 217.578 138.914 213.574 C 138.780 211.372,138.483 203.242,138.254 195.508 C 138.024 187.773,137.702 177.930,137.538 173.633 C 137.374 169.336,137.386 165.762,137.565 165.690 C 137.744 165.618,137.873 164.915,137.852 164.128 C 137.817 162.838,137.782 162.792,137.500 163.672 C 137.245 164.468,137.180 164.305,137.148 162.793 L 137.109 160.938 127.733 160.938 L 118.356 160.938 116.327 164.037 M221.782 171.761 C 222.268 171.854,222.971 171.851,223.344 171.753 C 223.718 171.655,223.320 171.579,222.461 171.583 C 221.602 171.587,221.296 171.667,221.782 171.761 M227.909 171.800 C 228.142 172.211,227.213 172.287,223.120 172.190 C 220.327 172.124,218.106 172.174,218.184 172.300 C 218.401 172.649,214.443 173.477,213.967 173.183 C 213.703 173.020,213.668 173.115,213.871 173.444 C 214.105 173.822,214.011 173.892,213.520 173.704 C 213.069 173.530,212.941 173.594,213.130 173.899 C 213.316 174.201,213.194 174.269,212.764 174.104 C 212.366 173.951,212.154 174.038,212.212 174.330 C 212.263 174.591,211.999 174.781,211.625 174.751 C 211.252 174.722,211.026 174.828,211.125 174.987 C 211.354 175.357,209.588 177.036,209.287 176.735 C 209.164 176.612,209.089 176.830,209.121 177.220 C 209.156 177.647,208.959 177.882,208.625 177.810 C 208.167 177.711,208.158 177.796,208.575 178.298 C 208.903 178.693,208.930 178.906,208.652 178.906 C 208.050 178.906,207.261 180.613,206.447 183.680 C 206.063 185.125,205.624 186.229,205.470 186.134 C 205.317 186.039,205.279 186.421,205.387 186.984 C 205.506 187.610,205.430 187.913,205.191 187.765 C 204.952 187.617,204.876 187.921,204.996 188.546 C 205.143 189.316,205.066 189.492,204.684 189.256 C 204.335 189.040,204.271 189.095,204.477 189.429 C 204.909 190.128,203.886 194.728,203.445 194.069 C 203.233 193.752,203.203 193.989,203.365 194.687 C 203.533 195.405,203.487 195.731,203.238 195.578 C 202.999 195.430,202.923 195.733,203.043 196.359 C 203.190 197.129,203.113 197.304,202.731 197.068 C 202.394 196.860,202.318 196.908,202.505 197.211 C 202.859 197.783,202.006 202.032,201.590 201.775 C 201.422 201.671,201.373 202.046,201.480 202.609 C 201.600 203.235,201.524 203.538,201.285 203.390 C 201.046 203.242,200.970 203.546,201.090 204.171 C 201.203 204.765,201.129 205.098,200.914 204.965 C 200.687 204.825,200.525 206.571,200.498 209.432 C 200.474 212.015,200.534 214.050,200.631 213.953 C 200.882 213.702,203.703 216.534,203.590 216.924 C 203.538 217.101,203.664 217.142,203.869 217.015 C 204.317 216.738,207.829 217.627,207.620 217.965 C 207.539 218.095,211.461 218.186,216.334 218.168 C 225.398 218.133,232.003 217.309,231.374 216.292 C 231.239 216.073,231.321 216.013,231.557 216.159 C 231.792 216.304,232.554 216.077,233.250 215.654 C 233.946 215.231,234.687 214.990,234.896 215.120 C 235.106 215.249,235.167 215.178,235.033 214.961 C 234.727 214.465,236.475 212.777,236.878 213.180 C 237.041 213.343,237.139 213.301,237.096 213.086 C 236.920 212.214,237.135 211.688,237.560 211.951 C 237.819 212.111,237.906 212.060,237.764 211.831 C 237.428 211.286,238.825 208.494,239.244 208.875 C 239.428 209.043,239.457 208.968,239.308 208.709 C 238.977 208.132,239.423 206.185,239.829 206.436 C 239.990 206.536,240.034 206.157,239.926 205.594 C 239.811 204.992,239.885 204.667,240.107 204.804 C 240.329 204.942,240.421 204.525,240.331 203.788 C 240.213 202.821,240.273 202.671,240.597 203.125 C 240.911 203.566,240.951 203.381,240.759 202.381 C 240.576 201.430,240.631 201.129,240.950 201.327 C 241.230 201.500,241.318 201.397,241.186 201.052 C 240.909 200.331,243.725 188.611,244.117 188.853 C 244.283 188.955,244.330 188.579,244.223 188.016 C 244.115 187.454,244.185 187.090,244.377 187.209 C 244.569 187.328,244.747 186.871,244.773 186.193 C 244.798 185.515,244.950 183.730,245.111 182.227 C 245.403 179.491,244.881 176.172,244.160 176.172 C 243.973 176.172,243.869 175.864,243.930 175.488 C 244.064 174.661,243.411 173.750,242.907 174.061 C 242.707 174.185,242.298 174.082,241.997 173.832 C 240.885 172.909,237.227 172.275,232.988 172.270 C 230.082 172.267,228.500 172.106,228.146 171.777 C 227.723 171.385,227.677 171.389,227.909 171.800 M152.734 172.386 C 152.734 172.560,152.584 172.609,152.400 172.496 C 152.216 172.382,152.154 172.750,152.262 173.312 C 152.409 174.082,152.331 174.257,151.949 174.021 C 151.601 173.806,151.536 173.860,151.743 174.195 C 152.167 174.881,151.152 179.499,150.723 178.834 C 150.530 178.535,150.499 178.876,150.647 179.651 C 150.812 180.508,150.763 180.894,150.508 180.737 C 150.264 180.586,150.187 180.882,150.308 181.515 C 150.456 182.285,150.378 182.460,149.996 182.224 C 149.652 182.011,149.583 182.064,149.783 182.387 C 150.219 183.093,149.660 185.624,149.139 185.302 C 148.874 185.138,148.818 185.215,148.995 185.501 C 149.380 186.124,148.854 189.124,148.407 188.849 C 148.214 188.729,148.160 188.902,148.286 189.232 C 148.610 190.076,146.422 198.835,145.959 198.549 C 145.742 198.416,145.710 198.524,145.884 198.804 C 146.308 199.490,145.292 204.109,144.864 203.444 C 144.671 203.144,144.639 203.485,144.788 204.260 C 144.953 205.117,144.903 205.503,144.649 205.346 C 144.404 205.195,144.328 205.492,144.449 206.125 C 144.569 206.750,144.493 207.054,144.254 206.906 C 144.015 206.758,143.939 207.061,144.058 207.687 C 144.206 208.457,144.128 208.632,143.746 208.396 C 143.402 208.183,143.333 208.236,143.533 208.559 C 143.912 209.172,143.427 211.807,142.985 211.534 C 142.801 211.420,142.741 211.673,142.852 212.096 C 143.118 213.111,142.208 216.856,141.763 216.580 C 141.572 216.462,141.520 216.638,141.648 216.972 C 141.843 217.481,142.778 217.578,147.457 217.578 L 153.034 217.578 154.296 212.504 C 155.082 209.342,155.711 207.525,155.964 207.682 C 156.208 207.833,156.253 207.743,156.076 207.457 C 155.640 206.751,156.199 204.220,156.721 204.542 C 156.989 204.708,157.041 204.628,156.858 204.332 C 156.489 203.735,156.958 201.080,157.385 201.345 C 157.558 201.451,157.612 201.079,157.504 200.516 C 157.384 199.890,157.460 199.587,157.699 199.735 C 157.939 199.883,158.014 199.579,157.895 198.954 C 157.775 198.328,157.851 198.025,158.090 198.172 C 158.329 198.320,158.405 198.017,158.285 197.391 C 158.170 196.786,158.244 196.464,158.468 196.602 C 158.677 196.731,158.847 196.537,158.846 196.172 C 158.843 193.915,159.006 193.178,159.380 193.750 C 159.651 194.162,159.689 193.942,159.509 193.006 C 159.307 191.958,159.363 191.743,159.771 191.996 C 160.145 192.227,160.221 192.139,160.044 191.678 C 159.910 191.328,159.968 190.937,160.173 190.810 C 160.379 190.683,160.547 190.951,160.547 191.406 C 160.547 191.921,160.713 192.131,160.988 191.961 C 161.308 191.763,161.381 192.684,161.255 195.316 C 161.155 197.410,161.219 198.630,161.406 198.202 C 161.593 197.773,161.671 199.185,161.591 201.563 C 161.515 203.818,161.565 205.137,161.702 204.492 C 161.978 203.189,162.500 209.863,162.500 214.709 L 162.500 217.578 166.384 217.578 C 169.821 217.578,170.331 217.489,170.814 216.799 C 171.114 216.371,171.503 216.151,171.680 216.311 C 171.856 216.471,171.874 216.382,171.720 216.114 C 171.369 215.505,172.662 213.239,173.179 213.558 C 173.388 213.687,173.433 213.591,173.280 213.342 C 172.952 212.811,173.965 211.205,174.372 211.612 C 174.525 211.765,174.524 211.559,174.368 211.154 C 174.169 210.636,174.224 210.504,174.553 210.707 C 174.809 210.866,174.980 210.851,174.932 210.674 C 174.765 210.054,175.450 208.584,175.805 208.804 C 176.002 208.925,176.060 208.757,175.934 208.429 C 175.676 207.755,176.696 206.530,177.165 206.952 C 177.332 207.103,177.343 207.007,177.189 206.739 C 176.864 206.176,178.112 203.852,178.583 204.143 C 178.756 204.250,178.782 204.036,178.640 203.667 C 178.452 203.176,178.521 203.082,178.900 203.317 C 179.244 203.529,179.324 203.485,179.139 203.186 C 178.811 202.655,179.825 201.049,180.231 201.455 C 180.385 201.609,180.383 201.403,180.228 200.998 C 180.016 200.447,180.075 200.343,180.463 200.582 C 180.804 200.793,180.887 200.751,180.706 200.459 C 180.357 199.894,181.169 198.341,181.656 198.642 C 181.863 198.770,181.910 198.577,181.765 198.198 C 181.588 197.737,181.653 197.618,181.975 197.817 C 182.231 197.975,182.402 197.960,182.354 197.783 C 182.187 197.163,182.872 195.694,183.227 195.913 C 183.424 196.035,183.469 195.833,183.328 195.464 C 183.151 195.003,183.216 194.884,183.537 195.082 C 183.794 195.241,183.965 195.226,183.917 195.049 C 183.759 194.466,184.424 192.953,184.750 193.154 C 184.925 193.262,185.044 193.045,185.014 192.672 C 184.985 192.298,185.181 192.036,185.449 192.090 C 185.718 192.144,185.894 191.990,185.840 191.748 C 185.786 191.506,185.962 191.228,186.230 191.130 C 186.543 191.015,186.719 191.322,186.719 191.983 C 186.719 192.638,186.561 192.917,186.286 192.748 C 185.990 192.565,185.928 192.834,186.090 193.603 C 186.363 194.905,185.477 198.223,184.978 197.768 C 184.792 197.599,184.772 197.689,184.933 197.968 C 185.282 198.573,184.427 202.422,184.002 202.159 C 183.840 202.059,183.795 202.437,183.902 203.000 C 184.049 203.769,183.972 203.945,183.590 203.709 C 183.246 203.496,183.177 203.548,183.377 203.871 C 183.813 204.577,183.254 207.109,182.732 206.786 C 182.475 206.627,182.412 206.699,182.576 206.964 C 182.919 207.519,182.442 210.215,182.045 209.969 C 181.885 209.870,181.841 210.250,181.949 210.812 C 182.083 211.511,182.004 211.748,181.702 211.561 C 181.425 211.390,181.339 211.497,181.473 211.845 C 181.591 212.152,181.413 213.461,181.078 214.754 C 180.743 216.047,180.469 217.216,180.469 217.352 C 180.469 217.488,182.974 217.551,186.035 217.491 L 191.602 217.383 192.006 215.704 C 192.229 214.781,192.565 214.166,192.753 214.337 C 192.941 214.509,192.970 214.432,192.817 214.167 C 192.475 213.572,192.944 210.876,193.346 211.124 C 193.506 211.223,193.549 210.844,193.442 210.282 C 193.322 209.656,193.398 209.353,193.637 209.500 C 193.876 209.648,193.952 209.345,193.832 208.719 C 193.699 208.020,193.777 207.783,194.080 207.970 C 194.363 208.146,194.440 208.028,194.292 207.643 C 194.021 206.937,196.121 198.018,196.503 198.254 C 196.645 198.342,196.674 197.954,196.567 197.391 C 196.447 196.765,196.523 196.462,196.762 196.610 C 197.001 196.758,197.077 196.454,196.957 195.829 C 196.824 195.129,196.902 194.892,197.205 195.079 C 197.489 195.255,197.565 195.137,197.416 194.751 C 197.129 194.002,198.016 190.169,198.420 190.419 C 198.582 190.519,198.627 190.141,198.520 189.579 C 198.373 188.809,198.450 188.633,198.832 188.869 C 199.176 189.082,199.245 189.030,199.045 188.707 C 198.650 188.068,199.161 185.465,199.625 185.752 C 199.826 185.876,199.886 185.705,199.758 185.371 C 199.471 184.623,200.752 179.232,201.157 179.483 C 201.318 179.582,201.362 179.204,201.254 178.641 C 201.107 177.871,201.184 177.696,201.566 177.932 C 201.907 178.142,201.979 178.092,201.786 177.780 C 201.428 177.201,201.912 174.147,202.322 174.401 C 202.487 174.502,202.534 174.125,202.426 173.563 C 202.279 172.793,202.356 172.618,202.738 172.854 C 203.078 173.064,203.151 173.014,202.960 172.705 C 202.462 171.899,184.740 172.134,185.050 172.942 C 185.208 173.353,185.135 173.470,184.836 173.286 C 184.532 173.097,184.468 173.225,184.641 173.677 C 184.829 174.167,184.760 174.261,184.381 174.027 C 184.037 173.815,183.957 173.858,184.142 174.158 C 184.511 174.754,183.178 176.981,182.643 176.662 C 182.414 176.525,182.490 176.743,182.813 177.147 C 183.346 177.815,183.335 177.857,182.695 177.617 C 182.273 177.458,182.086 177.507,182.229 177.738 C 182.528 178.222,181.219 180.495,180.792 180.232 C 180.619 180.125,180.593 180.339,180.735 180.708 C 180.908 181.160,180.845 181.287,180.540 181.098 C 180.235 180.910,180.171 181.037,180.344 181.489 C 180.518 181.941,180.454 182.068,180.149 181.880 C 179.844 181.691,179.780 181.819,179.954 182.270 C 180.142 182.761,180.072 182.855,179.694 182.621 C 179.350 182.408,179.269 182.452,179.454 182.751 C 179.782 183.281,178.518 185.595,178.058 185.310 C 177.885 185.203,177.859 185.417,178.001 185.786 C 178.195 186.293,178.123 186.375,177.703 186.122 C 177.258 185.854,177.264 185.933,177.734 186.522 C 178.264 187.185,178.257 187.232,177.657 187.007 C 177.159 186.821,177.054 186.917,177.235 187.389 C 177.409 187.842,177.332 187.929,176.959 187.699 C 176.615 187.486,176.535 187.530,176.720 187.829 C 177.047 188.359,175.784 190.673,175.323 190.388 C 175.150 190.281,175.125 190.495,175.266 190.864 C 175.454 191.355,175.385 191.449,175.006 191.215 C 174.661 191.002,174.582 191.046,174.768 191.347 C 175.105 191.892,173.075 195.767,172.605 195.476 C 172.423 195.364,172.372 195.527,172.492 195.839 C 172.718 196.427,171.999 197.129,171.590 196.720 C 171.461 196.591,171.384 195.773,171.418 194.901 C 171.461 193.811,171.343 193.401,171.039 193.588 C 170.718 193.787,170.648 192.663,170.781 189.431 C 170.881 186.994,170.843 185.343,170.695 185.762 C 170.337 186.779,169.800 177.569,170.076 175.147 C 170.231 173.795,170.194 173.526,169.951 174.219 C 169.638 175.114,169.606 175.075,169.570 173.745 L 169.531 172.295 161.132 172.183 C 156.513 172.121,152.734 172.213,152.734 172.386 M315.505 172.389 C 315.872 172.981,315.215 175.425,314.764 175.146 C 314.502 174.984,314.443 175.058,314.615 175.336 C 315.038 176.021,314.091 180.142,313.583 179.828 C 313.323 179.667,313.274 179.751,313.455 180.043 C 313.824 180.640,313.355 183.295,312.927 183.030 C 312.754 182.924,312.701 183.296,312.808 183.859 C 312.942 184.558,312.864 184.795,312.561 184.608 C 312.279 184.433,312.201 184.549,312.346 184.927 C 312.676 185.788,311.258 191.530,310.866 190.922 C 310.691 190.651,310.663 191.028,310.804 191.760 C 310.969 192.617,310.919 193.003,310.664 192.846 C 310.421 192.696,310.334 193.011,310.439 193.664 C 310.572 194.502,310.519 194.602,310.187 194.141 C 309.870 193.698,309.829 193.880,310.022 194.885 C 310.187 195.742,310.138 196.128,309.883 195.971 C 309.639 195.820,309.562 196.117,309.683 196.750 C 309.803 197.375,309.727 197.679,309.488 197.531 C 309.249 197.383,309.173 197.686,309.293 198.312 C 309.412 198.938,309.337 199.241,309.097 199.093 C 308.858 198.946,308.782 199.249,308.902 199.875 C 309.049 200.644,308.972 200.820,308.590 200.584 C 308.258 200.378,308.177 200.424,308.357 200.714 C 308.700 201.269,308.224 203.965,307.826 203.719 C 307.666 203.620,307.623 204.000,307.730 204.562 C 307.850 205.188,307.774 205.491,307.535 205.343 C 307.296 205.196,307.220 205.499,307.340 206.125 C 307.459 206.750,307.383 207.054,307.144 206.906 C 306.905 206.758,306.829 207.061,306.949 207.687 C 307.096 208.457,307.019 208.632,306.637 208.396 C 306.293 208.183,306.224 208.236,306.424 208.559 C 306.792 209.155,306.323 211.810,305.896 211.546 C 305.723 211.439,305.670 211.812,305.777 212.375 C 305.897 213.000,305.821 213.304,305.582 213.156 C 305.343 213.008,305.267 213.311,305.387 213.937 C 305.506 214.563,305.430 214.866,305.191 214.718 C 304.952 214.571,304.876 214.874,304.996 215.500 C 305.116 216.125,305.040 216.429,304.801 216.281 C 304.562 216.134,304.484 216.430,304.601 217.040 C 304.765 217.898,304.937 218.003,305.814 217.781 C 306.376 217.639,307.451 217.458,308.203 217.380 L 309.570 217.237 308.203 217.550 C 307.275 217.763,308.404 217.861,311.719 217.857 C 314.592 217.853,316.119 217.732,315.430 217.565 C 314.493 217.337,314.434 217.271,315.137 217.234 C 315.620 217.208,316.016 217.001,316.016 216.774 C 316.016 216.546,316.166 216.453,316.350 216.567 C 316.534 216.680,316.596 216.313,316.488 215.750 C 316.355 215.051,316.433 214.814,316.736 215.001 C 317.020 215.177,317.096 215.059,316.948 214.673 C 316.606 213.784,317.573 210.107,318.068 210.413 C 318.317 210.567,318.364 210.479,318.186 210.191 C 317.749 209.485,318.309 206.954,318.830 207.276 C 319.096 207.441,319.150 207.363,318.971 207.073 C 318.621 206.506,319.485 202.659,319.904 202.919 C 320.067 203.019,320.112 202.641,320.004 202.079 C 319.884 201.453,319.960 201.150,320.199 201.297 C 320.439 201.445,320.514 201.142,320.395 200.516 C 320.275 199.890,320.351 199.587,320.590 199.735 C 320.829 199.883,320.905 199.579,320.785 198.954 C 320.638 198.184,320.715 198.008,321.097 198.244 C 321.429 198.450,321.510 198.404,321.330 198.114 C 320.924 197.456,321.493 194.881,321.978 195.181 C 322.219 195.330,322.270 195.244,322.102 194.973 C 321.700 194.323,322.242 192.127,322.730 192.428 C 322.979 192.582,323.038 192.383,322.885 191.901 C 322.739 191.443,322.864 190.939,323.188 190.670 C 323.837 190.132,324.432 192.350,323.965 193.566 C 323.798 194.003,323.847 194.175,324.095 194.022 C 324.584 193.720,325.597 210.728,325.271 213.772 C 325.127 215.116,325.164 215.485,325.378 214.844 C 325.650 214.028,325.710 214.166,325.742 215.683 L 325.781 217.499 327.637 217.666 C 328.657 217.757,329.876 217.696,330.346 217.529 C 330.815 217.363,331.977 217.186,332.927 217.137 C 334.221 217.070,334.645 216.893,334.613 216.434 C 334.589 216.096,334.803 215.869,335.088 215.928 C 335.372 215.987,335.496 215.858,335.363 215.643 C 335.010 215.072,335.900 213.602,336.408 213.917 C 336.650 214.066,336.730 214.006,336.590 213.780 C 336.254 213.236,337.464 210.869,337.931 211.158 C 338.134 211.283,338.261 211.241,338.214 211.064 C 338.030 210.384,338.747 208.985,339.151 209.234 C 339.403 209.390,339.461 209.313,339.296 209.045 C 338.967 208.514,339.981 206.908,340.388 207.315 C 340.541 207.468,340.539 207.262,340.384 206.858 C 340.172 206.306,340.231 206.202,340.619 206.442 C 340.960 206.652,341.043 206.610,340.863 206.318 C 340.513 205.753,341.325 204.200,341.812 204.502 C 342.019 204.629,342.067 204.436,341.921 204.058 C 341.748 203.606,341.812 203.479,342.117 203.667 C 342.422 203.856,342.485 203.728,342.312 203.277 C 342.124 202.786,342.193 202.692,342.572 202.926 C 342.916 203.139,342.996 203.095,342.811 202.795 C 342.483 202.264,343.496 200.658,343.903 201.065 C 344.057 201.218,344.055 201.012,343.900 200.608 C 343.688 200.056,343.747 199.952,344.135 200.192 C 344.479 200.404,344.559 200.360,344.374 200.061 C 344.069 199.568,345.044 197.909,345.419 198.283 C 345.546 198.411,345.546 198.116,345.419 197.629 C 345.230 196.909,345.312 196.791,345.856 197.000 C 346.245 197.149,346.427 197.099,346.291 196.879 C 345.945 196.318,346.844 194.857,347.346 195.167 C 347.593 195.319,347.667 195.256,347.520 195.017 C 347.199 194.498,347.629 193.296,348.044 193.553 C 348.212 193.657,348.325 193.436,348.296 193.062 C 348.266 192.686,348.473 192.431,348.760 192.490 C 349.050 192.551,349.160 192.409,349.011 192.167 C 348.865 191.931,349.106 191.401,349.547 190.990 C 349.988 190.579,350.449 190.404,350.571 190.601 C 350.854 191.059,349.938 194.539,349.591 194.325 C 349.448 194.236,349.420 194.625,349.527 195.187 C 349.674 195.957,349.597 196.132,349.215 195.896 C 348.877 195.687,348.802 195.736,348.992 196.043 C 349.406 196.713,348.851 198.888,348.345 198.576 C 348.089 198.417,348.041 198.502,348.221 198.793 C 348.582 199.378,348.125 202.047,347.707 201.789 C 347.542 201.687,347.476 202.166,347.559 202.853 C 347.682 203.862,347.624 203.989,347.256 203.516 C 346.868 203.015,346.834 203.031,347.026 203.627 C 347.308 204.499,346.527 208.275,346.117 208.022 C 345.952 207.920,345.904 208.296,346.012 208.859 C 346.159 209.629,346.081 209.804,345.699 209.568 C 345.358 209.357,345.287 209.408,345.482 209.724 C 345.832 210.291,344.968 214.137,344.549 213.878 C 344.386 213.778,344.341 214.156,344.449 214.718 C 344.557 215.281,344.487 215.644,344.295 215.525 C 344.103 215.406,343.945 215.732,343.945 216.248 C 343.945 216.912,344.175 217.201,344.727 217.234 C 345.247 217.265,345.117 217.379,344.336 217.578 C 343.328 217.835,343.437 217.879,345.117 217.895 C 346.335 217.907,346.795 217.806,346.340 217.627 C 345.902 217.455,346.487 217.348,347.804 217.361 C 349.012 217.373,349.999 217.515,350.000 217.676 C 350.000 217.837,351.187 217.942,352.637 217.910 C 355.143 217.854,355.186 217.838,353.516 217.578 L 351.758 217.305 353.613 217.246 C 355.008 217.202,355.469 217.036,355.469 216.579 C 355.469 216.218,355.653 216.083,355.920 216.248 C 356.204 216.424,356.264 216.355,356.083 216.061 C 355.751 215.524,356.644 211.675,357.044 211.922 C 357.190 212.012,357.221 211.625,357.113 211.063 C 356.994 210.437,357.070 210.134,357.309 210.282 C 357.548 210.429,357.624 210.126,357.504 209.500 C 357.384 208.875,357.460 208.571,357.699 208.719 C 357.939 208.867,358.014 208.564,357.895 207.938 C 357.775 207.312,357.851 207.009,358.090 207.157 C 358.329 207.304,358.405 207.001,358.285 206.375 C 358.166 205.750,358.242 205.446,358.481 205.594 C 358.720 205.742,358.796 205.439,358.676 204.813 C 358.556 204.187,358.632 203.884,358.871 204.032 C 359.110 204.179,359.186 203.876,359.067 203.250 C 358.919 202.481,358.997 202.305,359.379 202.541 C 359.723 202.754,359.792 202.702,359.592 202.379 C 359.223 201.782,359.692 199.127,360.120 199.391 C 360.293 199.498,360.346 199.125,360.238 198.563 C 360.119 197.937,360.195 197.634,360.434 197.782 C 360.673 197.929,360.749 197.626,360.629 197.000 C 360.509 196.375,360.585 196.071,360.824 196.219 C 361.064 196.367,361.139 196.064,361.020 195.438 C 360.900 194.812,360.976 194.509,361.215 194.657 C 361.454 194.804,361.530 194.501,361.410 193.875 C 361.263 193.106,361.340 192.930,361.722 193.166 C 362.067 193.379,362.135 193.327,361.936 193.004 C 361.567 192.407,362.036 189.752,362.463 190.016 C 362.636 190.123,362.690 189.750,362.582 189.188 C 362.463 188.562,362.538 188.259,362.778 188.407 C 363.017 188.554,363.093 188.251,362.973 187.625 C 362.853 187.000,362.929 186.696,363.168 186.844 C 363.407 186.992,363.483 186.689,363.363 186.063 C 363.244 185.437,363.320 185.134,363.559 185.282 C 363.798 185.429,363.874 185.126,363.754 184.500 C 363.634 183.875,363.710 183.571,363.949 183.719 C 364.189 183.867,364.264 183.564,364.145 182.938 C 364.025 182.312,364.101 182.009,364.340 182.157 C 364.578 182.304,364.664 181.982,364.561 181.336 C 364.424 180.475,364.477 180.385,364.839 180.859 C 365.203 181.337,365.240 181.284,365.038 180.567 C 364.745 179.524,366.261 173.378,366.910 172.977 C 367.817 172.416,366.116 172.276,357.178 172.174 C 349.524 172.086,348.178 172.155,348.358 172.623 C 348.492 172.972,348.404 173.072,348.118 172.895 C 347.813 172.707,347.749 172.834,347.922 173.286 C 348.096 173.738,348.032 173.865,347.727 173.677 C 347.422 173.488,347.358 173.616,347.532 174.067 C 347.720 174.558,347.650 174.652,347.272 174.418 C 346.938 174.211,346.848 174.249,347.018 174.526 C 347.362 175.082,345.937 177.431,345.487 177.049 C 345.298 176.889,345.401 177.098,345.716 177.515 C 346.232 178.196,346.223 178.246,345.625 178.023 C 345.128 177.837,345.022 177.932,345.203 178.404 C 345.363 178.821,345.292 178.940,344.993 178.755 C 344.688 178.566,344.624 178.694,344.797 179.145 C 344.986 179.636,344.916 179.730,344.537 179.496 C 344.203 179.289,344.114 179.328,344.284 179.604 C 344.606 180.124,343.211 182.534,342.816 182.139 C 342.663 181.986,342.664 182.191,342.819 182.596 C 343.014 183.104,342.962 183.245,342.649 183.052 C 342.344 182.863,342.280 182.991,342.454 183.442 C 342.627 183.894,342.563 184.021,342.258 183.833 C 341.953 183.644,341.890 183.772,342.063 184.223 C 342.251 184.714,342.182 184.808,341.803 184.574 C 341.459 184.361,341.379 184.405,341.564 184.705 C 341.892 185.236,340.879 186.842,340.472 186.435 C 340.318 186.282,340.320 186.488,340.475 186.892 C 340.671 187.401,340.618 187.542,340.305 187.348 C 340.000 187.160,339.937 187.287,340.110 187.739 C 340.283 188.191,340.220 188.318,339.915 188.130 C 339.610 187.941,339.546 188.069,339.719 188.520 C 339.908 189.011,339.838 189.105,339.459 188.871 C 339.114 188.658,339.035 188.702,339.222 189.004 C 339.526 189.497,337.928 192.647,337.506 192.386 C 337.363 192.298,337.260 192.613,337.276 193.086 C 337.293 193.603,337.099 193.903,336.787 193.838 C 336.503 193.779,336.372 193.895,336.496 194.096 C 336.812 194.608,336.321 195.745,335.897 195.483 C 335.573 195.283,335.378 195.851,335.510 196.611 C 335.541 196.788,335.386 196.822,335.166 196.686 C 334.946 196.550,334.739 195.262,334.707 193.825 C 334.651 191.329,334.636 191.290,334.375 192.969 C 334.198 194.108,334.065 192.389,333.997 188.086 C 333.875 180.359,333.852 181.437,334.175 179.492 C 334.366 178.339,334.325 178.083,334.020 178.516 C 333.715 178.947,333.604 178.204,333.600 175.697 L 333.594 172.293 324.451 172.182 C 319.422 172.120,315.397 172.214,315.505 172.389 M253.506 173.268 C 253.296 173.819,253.125 174.620,253.125 175.048 C 253.125 175.538,252.957 175.724,252.674 175.549 C 252.397 175.377,252.329 175.441,252.498 175.714 C 252.841 176.269,252.364 178.965,251.967 178.719 C 251.806 178.620,251.763 179.000,251.871 179.562 C 251.991 180.188,251.915 180.491,251.676 180.343 C 251.436 180.196,251.361 180.499,251.480 181.125 C 251.600 181.750,251.524 182.054,251.285 181.906 C 251.046 181.758,250.970 182.061,251.090 182.687 C 251.209 183.313,251.133 183.616,250.894 183.468 C 250.655 183.321,250.579 183.624,250.699 184.250 C 250.824 184.906,250.747 185.181,250.484 185.018 C 250.228 184.860,250.150 185.059,250.277 185.546 C 250.396 186.001,250.290 186.328,250.023 186.328 C 249.770 186.328,249.679 186.515,249.820 186.744 C 250.230 187.407,249.634 189.905,249.139 189.599 C 248.870 189.433,248.819 189.512,249.002 189.809 C 249.438 190.515,248.879 193.046,248.357 192.724 C 248.089 192.558,248.037 192.637,248.221 192.934 C 248.582 193.518,248.125 196.188,247.707 195.930 C 247.542 195.828,247.487 196.287,247.584 196.951 C 247.718 197.865,247.639 198.082,247.258 197.847 C 246.918 197.637,246.850 197.690,247.048 198.010 C 247.390 198.564,245.752 205.545,245.340 205.291 C 245.188 205.196,245.132 205.681,245.216 206.368 C 245.333 207.335,245.274 207.485,244.950 207.031 C 244.636 206.591,244.596 206.775,244.788 207.776 C 244.935 208.539,244.893 209.013,244.690 208.889 C 244.495 208.769,244.321 209.303,244.303 210.076 C 244.286 210.848,244.076 211.545,243.837 211.625 C 243.599 211.704,243.492 212.001,243.601 212.284 C 243.709 212.567,243.540 213.786,243.225 214.993 C 242.700 217.004,242.706 217.191,243.299 217.226 C 243.703 217.251,243.610 217.361,243.050 217.519 C 242.558 217.659,244.889 217.781,248.230 217.790 L 254.305 217.806 254.689 216.423 C 254.901 215.662,255.075 214.809,255.076 214.528 C 255.077 214.246,255.229 214.109,255.412 214.223 C 255.596 214.337,255.659 213.969,255.551 213.407 C 255.431 212.781,255.507 212.478,255.746 212.625 C 255.985 212.773,256.061 212.470,255.942 211.844 C 255.827 211.242,255.901 210.917,256.123 211.054 C 256.346 211.192,256.427 210.797,256.322 210.080 C 256.214 209.343,256.296 208.966,256.532 209.112 C 256.766 209.257,256.841 208.948,256.723 208.329 C 256.603 207.703,256.679 207.400,256.918 207.547 C 257.157 207.695,257.233 207.392,257.113 206.766 C 256.988 206.110,257.065 205.834,257.329 205.997 C 257.589 206.158,257.659 205.943,257.520 205.411 C 257.212 204.234,258.357 203.514,260.524 203.521 C 263.187 203.529,264.161 203.877,263.935 204.742 C 263.820 205.183,263.905 205.371,264.151 205.218 C 264.412 205.057,264.495 205.399,264.381 206.174 C 264.274 206.899,264.356 207.287,264.585 207.145 C 264.822 206.999,264.869 207.413,264.710 208.240 C 264.554 209.050,264.588 209.363,264.795 209.040 C 265.215 208.388,266.216 212.196,265.865 213.111 C 265.717 213.497,265.793 213.614,266.077 213.439 C 266.379 213.252,266.458 213.489,266.324 214.188 C 266.216 214.750,266.257 215.131,266.415 215.034 C 266.573 214.936,266.807 215.381,266.935 216.022 C 267.109 216.893,267.392 217.194,268.057 217.215 C 268.896 217.241,268.902 217.260,268.164 217.556 C 267.681 217.750,268.847 217.892,271.219 217.927 C 273.961 217.968,274.978 217.859,274.785 217.547 C 274.587 217.226,274.728 217.224,275.318 217.539 C 276.320 218.076,277.471 218.100,277.148 217.578 C 277.016 217.363,277.181 217.188,277.516 217.188 C 277.851 217.188,278.125 217.325,278.125 217.493 C 278.125 217.661,278.551 217.834,279.072 217.877 C 279.935 217.948,280.000 217.842,279.802 216.692 C 279.682 215.998,279.564 214.963,279.538 214.393 C 279.513 213.822,279.375 213.428,279.231 213.517 C 278.844 213.756,278.411 211.423,278.742 210.887 C 278.932 210.580,278.858 210.531,278.519 210.740 C 278.136 210.977,278.061 210.797,278.212 210.005 C 278.322 209.429,278.306 209.064,278.176 209.193 C 278.047 209.323,277.569 208.055,277.115 206.375 C 276.201 202.992,276.594 201.275,278.189 201.693 C 278.636 201.809,278.809 201.722,278.647 201.460 C 278.483 201.194,278.626 201.130,279.033 201.287 C 279.431 201.439,279.642 201.353,279.585 201.060 C 279.534 200.799,279.793 200.609,280.160 200.638 C 280.528 200.666,280.795 200.578,280.753 200.442 C 280.645 200.093,282.926 197.865,283.398 197.857 C 283.612 197.854,283.792 197.588,283.797 197.266 C 283.813 196.140,284.433 194.912,284.854 195.172 C 285.100 195.324,285.165 195.252,285.009 195.000 C 284.621 194.372,285.163 192.536,285.649 192.836 C 285.894 192.988,285.941 192.900,285.768 192.619 C 285.410 192.040,286.655 186.243,287.081 186.506 C 287.249 186.610,287.299 186.235,287.192 185.672 C 287.066 185.016,287.143 184.740,287.407 184.903 C 287.654 185.056,287.747 184.885,287.640 184.473 C 287.542 184.097,287.613 182.525,287.798 180.979 C 288.014 179.176,287.999 178.253,287.756 178.404 C 287.533 178.541,287.468 178.290,287.597 177.795 C 287.719 177.331,287.677 177.039,287.505 177.146 C 287.077 177.410,286.654 176.211,286.975 175.648 C 287.118 175.399,287.091 175.326,286.915 175.485 C 286.461 175.896,285.501 175.002,285.821 174.467 C 285.971 174.218,285.814 174.245,285.461 174.531 C 284.792 175.073,284.123 174.551,284.568 173.833 C 284.709 173.603,284.534 173.551,284.136 173.704 C 283.645 173.892,283.551 173.822,283.785 173.444 C 283.966 173.151,283.951 173.016,283.752 173.133 C 283.557 173.247,282.080 173.106,280.469 172.819 C 278.467 172.462,273.794 172.292,265.713 172.281 L 253.887 172.266 253.506 173.268 M296.622 173.431 C 296.494 174.072,296.260 174.517,296.103 174.420 C 295.945 174.322,295.904 174.703,296.012 175.265 C 296.131 175.891,296.055 176.194,295.816 176.046 C 295.577 175.899,295.501 176.202,295.621 176.828 C 295.741 177.454,295.665 177.757,295.426 177.609 C 295.186 177.461,295.111 177.764,295.230 178.390 C 295.377 179.160,295.300 179.335,294.918 179.099 C 294.574 178.886,294.505 178.939,294.705 179.262 C 295.066 179.847,294.609 182.516,294.192 182.258 C 294.026 182.156,293.971 182.616,294.068 183.279 C 294.203 184.193,294.123 184.410,293.742 184.175 C 293.409 183.969,293.334 184.018,293.521 184.320 C 293.901 184.936,293.006 189.132,292.554 188.852 C 292.357 188.731,292.304 188.911,292.435 189.253 C 292.735 190.036,290.992 196.907,290.561 196.640 C 290.386 196.532,290.347 196.714,290.474 197.045 C 290.754 197.774,288.638 206.666,288.243 206.422 C 288.089 206.327,288.063 206.628,288.184 207.092 C 288.314 207.590,288.248 207.838,288.023 207.699 C 287.793 207.557,287.712 207.943,287.818 208.670 C 287.953 209.584,287.873 209.801,287.492 209.565 C 287.164 209.363,287.084 209.409,287.263 209.699 C 287.633 210.296,287.114 212.940,286.680 212.672 C 286.492 212.555,286.434 212.712,286.552 213.020 C 286.670 213.328,286.520 214.528,286.217 215.686 L 285.667 217.792 291.809 217.837 C 297.815 217.881,297.947 217.865,297.742 217.083 C 297.588 216.494,297.668 216.367,298.046 216.601 C 298.392 216.815,298.464 216.766,298.268 216.449 C 297.883 215.824,300.869 203.814,301.260 204.418 C 301.426 204.674,301.459 204.268,301.334 203.516 C 301.160 202.474,301.207 202.288,301.529 202.734 C 301.850 203.179,301.890 202.999,301.696 201.990 C 301.496 200.950,301.552 200.729,301.953 200.976 C 302.289 201.184,302.370 201.140,302.190 200.848 C 301.847 200.293,302.323 197.597,302.721 197.843 C 302.881 197.942,302.924 197.563,302.817 197.000 C 302.697 196.375,302.773 196.071,303.012 196.219 C 303.251 196.367,303.327 196.064,303.207 195.438 C 303.088 194.812,303.163 194.509,303.403 194.657 C 303.642 194.804,303.718 194.501,303.598 193.875 C 303.478 193.250,303.554 192.946,303.793 193.094 C 304.032 193.242,304.108 192.939,303.988 192.313 C 303.869 191.687,303.945 191.384,304.184 191.532 C 304.423 191.679,304.499 191.376,304.379 190.750 C 304.232 189.981,304.309 189.805,304.691 190.041 C 305.036 190.254,305.104 190.202,304.904 189.879 C 304.536 189.282,305.005 186.627,305.432 186.891 C 305.605 186.998,305.659 186.625,305.551 186.063 C 305.431 185.437,305.507 185.134,305.746 185.282 C 305.985 185.429,306.061 185.126,305.942 184.500 C 305.822 183.875,305.898 183.571,306.137 183.719 C 306.376 183.867,306.452 183.564,306.332 182.938 C 306.213 182.312,306.288 182.009,306.528 182.157 C 306.767 182.304,306.843 182.001,306.723 181.375 C 306.603 180.750,306.679 180.446,306.918 180.594 C 307.157 180.742,307.233 180.439,307.113 179.813 C 306.966 179.043,307.044 178.868,307.426 179.104 C 307.766 179.314,307.838 179.264,307.646 178.952 C 307.214 178.254,307.810 175.151,308.246 175.828 C 308.462 176.164,308.496 175.867,308.337 175.037 C 308.172 174.180,308.222 173.793,308.476 173.951 C 308.718 174.100,308.800 173.821,308.687 173.230 L 308.503 172.266 302.679 172.266 L 296.855 172.266 296.622 173.431 M123.490 180.695 C 123.837 183.391,123.700 196.186,123.317 196.777 C 122.920 197.390,112.821 197.465,111.697 196.863 C 111.071 196.528,111.023 196.337,111.410 195.717 C 111.666 195.307,112.043 195.076,112.248 195.203 C 112.453 195.330,112.497 195.233,112.346 194.989 C 112.014 194.452,113.814 191.679,114.227 192.092 C 114.387 192.252,114.483 192.207,114.439 191.992 C 114.279 191.198,114.463 190.585,114.800 190.793 C 114.990 190.911,115.122 190.701,115.093 190.328 C 115.063 189.952,115.270 189.696,115.556 189.756 C 115.841 189.815,115.965 189.688,115.833 189.474 C 115.497 188.930,116.792 187.060,117.291 187.368 C 117.528 187.515,117.582 187.432,117.421 187.170 C 117.122 186.688,118.087 185.014,118.453 185.380 C 118.573 185.500,118.646 185.280,118.613 184.889 C 118.581 184.499,118.756 184.218,119.003 184.264 C 119.279 184.316,119.367 184.028,119.233 183.515 C 119.059 182.848,119.149 182.732,119.684 182.937 C 120.070 183.086,120.255 183.036,120.121 182.819 C 119.846 182.373,120.912 180.564,122.045 179.556 C 122.489 179.161,122.605 178.969,122.303 179.128 C 121.931 179.324,121.848 179.265,122.046 178.946 C 122.612 178.030,123.245 178.797,123.490 180.695 M227.148 181.657 C 225.464 181.898,225.595 181.924,228.099 181.843 C 230.683 181.759,231.103 181.848,231.908 182.653 C 232.796 183.542,233.252 186.256,232.428 185.746 C 232.189 185.598,232.127 185.998,232.265 186.797 C 232.436 187.785,232.389 187.949,232.065 187.500 C 231.744 187.056,231.704 187.236,231.897 188.244 C 232.062 189.102,232.013 189.488,231.758 189.330 C 231.514 189.179,231.437 189.476,231.558 190.109 C 231.706 190.879,231.628 191.054,231.246 190.818 C 230.914 190.613,230.834 190.658,231.013 190.949 C 231.453 191.661,230.838 194.330,230.381 193.691 C 230.106 193.306,230.071 193.366,230.250 193.915 C 230.550 194.831,229.752 198.914,229.325 198.650 C 229.157 198.546,229.107 198.921,229.215 199.484 C 229.362 200.254,229.285 200.429,228.903 200.193 C 228.586 199.997,228.490 200.034,228.649 200.290 C 228.974 200.815,228.515 203.171,228.134 202.935 C 227.976 202.838,227.935 203.218,228.043 203.781 C 228.176 204.480,228.098 204.717,227.795 204.530 C 227.516 204.357,227.434 204.468,227.574 204.832 C 227.898 205.679,227.075 206.968,225.659 207.832 C 224.324 208.646,214.925 209.019,215.407 208.240 C 215.528 208.045,215.295 207.972,214.890 208.078 C 214.415 208.202,213.929 207.950,213.522 207.369 C 212.784 206.315,212.643 204.098,213.342 204.529 C 213.630 204.707,213.686 204.636,213.498 204.332 C 213.130 203.735,213.598 201.080,214.026 201.345 C 214.199 201.451,214.252 201.079,214.145 200.516 C 214.025 199.890,214.101 199.587,214.340 199.735 C 214.579 199.883,214.655 199.579,214.535 198.954 C 214.416 198.328,214.492 198.025,214.731 198.172 C 214.970 198.320,215.046 198.017,214.926 197.391 C 214.806 196.765,214.882 196.462,215.121 196.610 C 215.360 196.758,215.436 196.454,215.317 195.829 C 215.197 195.203,215.273 194.900,215.512 195.047 C 215.751 195.195,215.827 194.892,215.707 194.266 C 215.582 193.610,215.659 193.334,215.923 193.497 C 216.179 193.655,216.256 193.457,216.129 192.969 C 216.010 192.515,216.117 192.188,216.384 192.188 C 216.636 192.188,216.729 192.003,216.590 191.778 C 216.265 191.253,217.169 187.442,217.560 187.684 C 217.723 187.785,217.768 187.407,217.660 186.844 C 217.535 186.188,217.612 185.912,217.876 186.075 C 218.136 186.236,218.206 186.021,218.066 185.486 C 217.945 185.023,218.005 184.742,218.200 184.862 C 218.395 184.983,218.581 184.636,218.614 184.091 C 218.679 183.010,219.434 182.323,220.235 182.617 C 220.515 182.720,220.644 182.642,220.522 182.446 C 220.181 181.893,221.677 181.572,223.323 181.844 C 224.424 182.027,224.654 181.983,224.219 181.676 C 223.786 181.370,224.346 181.277,226.367 181.320 L 229.102 181.377 227.148 181.657 M274.403 182.574 C 275.614 183.367,275.669 184.619,274.665 188.484 C 273.257 193.901,272.905 194.141,266.351 194.141 C 260.076 194.141,260.167 194.175,260.674 191.963 C 260.938 190.809,261.183 190.383,261.396 190.712 C 261.575 190.989,261.604 190.620,261.462 189.881 C 261.262 188.840,261.318 188.619,261.718 188.867 C 262.054 189.075,262.136 189.031,261.955 188.739 C 261.586 188.141,262.104 185.498,262.538 185.766 C 262.727 185.883,262.802 185.749,262.704 185.470 C 262.202 184.031,263.112 182.224,264.282 182.335 C 265.198 182.422,265.311 182.358,264.844 182.014 C 263.797 181.246,273.219 181.798,274.403 182.574 M123.138 184.766 C 123.138 185.518,123.218 185.825,123.316 185.449 C 123.414 185.073,123.414 184.458,123.316 184.082 C 123.218 183.706,123.138 184.014,123.138 184.766 M114.366 196.771 C 115.285 196.853,116.691 196.852,117.491 196.768 C 118.291 196.684,117.539 196.617,115.820 196.618 C 114.102 196.620,113.447 196.688,114.366 196.771 M331.938 217.854 C 332.424 217.948,333.127 217.944,333.501 217.847 C 333.874 217.749,333.477 217.672,332.617 217.677 C 331.758 217.681,331.452 217.761,331.938 217.854 " stroke="none" fill="#0c2e43" fill-rule="evenodd"></path><path id="path2" d="M118.659 160.471 C 118.316 160.537,115.007 165.240,111.306 170.921 C 107.605 176.602,104.426 181.250,104.242 181.250 C 104.057 181.250,103.950 181.413,104.004 181.612 C 104.134 182.093,97.277 192.578,96.832 192.578 C 96.641 192.578,96.528 192.718,96.582 192.890 C 96.691 193.238,94.994 195.908,86.734 208.382 C 83.610 213.099,80.914 217.186,80.742 217.464 C 80.490 217.871,82.157 217.969,89.355 217.969 L 98.281 217.969 100.259 214.941 C 102.881 210.927,103.740 209.510,103.339 209.857 C 103.157 210.014,101.927 211.772,100.607 213.763 L 98.206 217.383 89.674 217.488 C 82.821 217.573,81.218 217.496,81.531 217.098 C 81.745 216.825,84.114 213.262,86.795 209.180 C 89.477 205.098,93.898 198.370,96.620 194.228 C 99.343 190.087,103.354 183.935,105.534 180.557 C 107.715 177.178,111.493 171.382,113.930 167.676 L 118.362 160.938 127.714 160.938 L 137.067 160.938 137.213 162.793 L 137.359 164.648 137.430 162.431 L 137.500 160.213 128.391 160.282 C 123.381 160.320,119.002 160.406,118.659 160.471 M137.275 167.442 C 137.386 168.484,137.573 172.588,137.690 176.563 C 138.420 201.307,138.683 209.276,138.898 213.184 L 139.140 217.578 131.900 217.578 L 124.661 217.578 124.499 216.504 C 124.347 215.504,124.332 215.518,124.277 216.699 L 124.219 217.969 131.889 217.969 L 139.559 217.969 139.311 213.574 C 139.174 211.157,138.966 204.609,138.848 199.023 C 138.730 193.438,138.563 188.604,138.477 188.281 C 138.390 187.959,138.215 182.773,138.086 176.758 C 137.942 170.046,137.701 165.768,137.462 165.684 C 137.220 165.599,137.149 166.266,137.275 167.442 M220.508 171.954 C 218.574 172.131,216.553 172.318,216.016 172.369 C 215.479 172.419,214.863 172.604,214.648 172.780 C 214.434 172.955,213.325 173.623,212.185 174.265 C 208.711 176.220,206.754 179.884,204.865 187.970 C 204.479 189.625,204.019 190.890,203.844 190.782 C 203.668 190.673,203.618 190.828,203.732 191.125 C 203.959 191.718,203.924 191.881,201.602 201.061 C 197.733 216.357,200.801 219.288,219.988 218.623 C 231.290 218.231,235.567 216.334,238.455 210.430 C 240.812 205.614,247.108 177.061,245.610 177.987 C 245.446 178.088,245.313 177.786,245.313 177.315 C 245.313 172.836,235.058 170.619,220.508 171.954 M151.998 173.300 C 151.779 174.128,151.042 177.178,150.359 180.078 C 149.677 182.979,148.964 185.411,148.775 185.483 C 148.587 185.555,148.527 185.766,148.642 185.952 C 148.903 186.375,146.865 195.074,146.467 195.234 C 146.307 195.298,146.266 195.693,146.376 196.112 C 146.486 196.532,146.385 196.875,146.152 196.875 C 145.918 196.875,145.816 197.106,145.925 197.389 C 146.033 197.672,145.061 202.336,143.764 207.753 C 142.467 213.171,141.406 217.686,141.406 217.786 C 141.406 217.887,144.107 217.969,147.407 217.969 L 153.407 217.969 156.389 206.114 C 158.962 195.886,160.817 187.647,159.217 193.555 C 158.106 197.658,153.125 217.100,153.125 217.333 C 153.125 217.468,150.557 217.578,147.419 217.578 C 142.142 217.578,141.734 217.527,141.984 216.895 C 142.133 216.519,142.482 215.156,142.760 213.867 C 143.037 212.578,144.610 205.898,146.255 199.023 C 147.899 192.148,149.871 183.887,150.636 180.664 C 151.402 177.441,152.182 174.199,152.370 173.459 C 152.559 172.720,152.642 172.043,152.554 171.955 C 152.467 171.868,152.216 172.473,151.998 173.300 M161.207 172.167 L 169.485 172.281 169.638 173.738 L 169.791 175.195 169.856 173.535 L 169.922 171.875 161.426 171.964 L 152.930 172.054 161.207 172.167 M184.444 173.538 C 183.944 174.450,181.595 178.799,179.223 183.203 C 176.851 187.607,174.633 191.431,174.294 191.699 C 173.956 191.968,173.803 192.188,173.954 192.188 C 174.106 192.188,173.682 193.286,173.011 194.629 C 170.372 199.915,172.849 195.822,177.443 187.305 C 180.108 182.363,183.038 176.958,183.953 175.293 L 185.617 172.266 194.120 172.266 L 202.623 172.266 201.752 175.879 C 201.272 177.866,199.365 185.645,197.513 193.164 C 195.660 200.684,193.572 209.209,192.871 212.109 L 191.597 217.383 186.033 217.491 C 182.973 217.551,180.469 217.480,180.469 217.333 C 180.469 217.187,181.722 212.216,183.253 206.287 C 184.784 200.359,186.107 195.068,186.191 194.531 C 186.581 192.056,185.489 195.681,183.604 203.123 C 182.503 207.468,181.183 212.590,180.671 214.505 L 179.739 217.988 185.863 217.881 L 191.987 217.773 192.386 215.891 C 192.613 214.824,192.937 214.148,193.135 214.329 C 193.334 214.511,193.363 214.437,193.201 214.156 C 192.884 213.606,196.026 200.266,196.518 200.072 C 196.690 200.005,196.747 199.729,196.643 199.460 C 196.540 199.190,197.867 193.269,199.593 186.301 C 201.320 179.334,202.824 173.237,202.936 172.754 L 203.140 171.875 194.246 171.878 L 185.352 171.881 184.444 173.538 M240.320 173.015 C 246.738 175.014,246.647 179.315,239.621 206.055 C 237.092 215.681,232.501 218.133,216.992 218.144 C 199.013 218.156,198.074 216.562,203.482 195.211 C 208.075 177.076,209.082 175.214,215.396 173.181 C 219.122 171.981,236.625 171.864,240.320 173.015 M253.340 172.329 C 252.826 173.844,250.009 186.076,250.143 186.211 C 250.230 186.298,251.070 183.240,252.010 179.415 L 253.720 172.461 265.044 172.345 C 288.183 172.108,290.134 173.675,286.132 189.287 C 284.189 196.868,282.715 199.233,278.733 201.161 C 277.732 201.646,276.992 202.123,277.090 202.220 C 277.188 202.318,277.966 202.042,278.820 201.606 C 279.674 201.171,280.482 200.895,280.616 200.993 C 280.750 201.092,280.801 201.084,280.730 200.978 C 280.659 200.871,281.376 199.974,282.323 198.986 C 283.270 197.997,284.363 196.448,284.751 195.542 C 286.306 191.915,289.053 178.516,288.242 178.516 C 288.083 178.516,287.840 178.002,287.702 177.375 C 287.564 176.747,287.041 175.791,286.540 175.250 C 286.039 174.709,285.698 174.168,285.783 174.048 C 285.868 173.927,285.836 173.900,285.712 173.988 C 285.589 174.076,284.490 173.681,283.271 173.109 L 281.055 172.070 267.286 171.938 C 256.051 171.831,253.485 171.903,253.340 172.329 M296.347 172.559 C 296.242 172.935,295.498 176.011,294.694 179.395 C 293.889 182.778,293.074 185.547,292.881 185.547 C 292.689 185.547,292.638 185.719,292.768 185.929 C 293.199 186.625,288.955 203.167,288.401 202.955 C 288.026 202.811,288.002 202.930,288.305 203.432 C 288.606 203.932,288.264 205.836,286.960 210.933 C 285.999 214.690,285.283 217.835,285.370 217.922 C 285.623 218.175,290.038 200.745,295.106 179.492 C 295.670 177.129,296.305 174.536,296.518 173.730 L 296.905 172.266 302.749 172.266 C 307.103 172.266,308.594 172.388,308.594 172.745 C 308.594 173.271,300.658 205.523,298.638 213.208 C 297.943 215.853,297.540 217.850,297.744 217.647 C 297.947 217.443,299.063 213.434,300.223 208.736 C 301.383 204.039,303.848 194.052,305.700 186.543 C 307.553 179.035,309.156 172.663,309.264 172.383 C 309.419 171.979,308.140 171.875,302.998 171.875 C 297.178 171.875,296.518 171.943,296.347 172.559 M315.502 172.168 C 315.409 172.329,314.492 175.889,313.464 180.078 C 312.435 184.268,311.456 187.751,311.288 187.818 C 311.119 187.886,311.064 188.156,311.164 188.418 C 311.265 188.680,309.755 195.286,307.809 203.098 C 305.862 210.910,304.323 217.460,304.387 217.654 C 304.488 217.956,308.244 203.111,314.214 178.812 L 315.820 172.272 324.692 172.269 L 333.563 172.266 333.694 175.684 L 333.824 179.102 333.904 175.488 L 333.984 171.875 324.828 171.875 C 319.792 171.875,315.595 172.007,315.502 172.168 M347.781 173.225 C 347.427 173.968,346.986 174.482,346.801 174.368 C 346.616 174.254,346.513 174.318,346.572 174.511 C 346.777 175.180,344.409 179.658,343.979 179.413 C 343.746 179.280,343.678 179.309,343.829 179.476 C 344.196 179.884,341.520 185.156,340.946 185.156 C 340.698 185.156,340.609 185.270,340.748 185.409 C 341.083 185.744,338.677 190.234,338.162 190.234 C 337.941 190.234,337.869 190.343,338.003 190.477 C 338.136 190.610,337.714 191.770,337.066 193.055 C 336.417 194.340,335.956 195.462,336.042 195.547 C 336.128 195.633,336.623 194.854,337.142 193.816 C 337.661 192.777,340.459 187.500,343.359 182.088 L 348.633 172.248 357.910 172.354 C 363.013 172.413,367.188 172.329,367.188 172.168 C 367.188 172.007,362.966 171.875,357.806 171.875 L 348.425 171.875 347.781 173.225 M366.406 173.147 C 366.406 173.364,356.760 211.958,355.814 215.527 C 355.380 217.165,355.349 217.188,353.566 217.246 L 351.758 217.305 353.516 217.552 C 355.812 217.875,355.543 218.339,357.459 210.742 C 358.379 207.090,359.276 204.043,359.451 203.971 C 359.627 203.898,359.675 203.684,359.557 203.495 C 359.440 203.305,361.037 196.451,363.106 188.264 C 365.174 180.076,366.763 173.274,366.637 173.147 C 366.510 173.020,366.406 173.020,366.406 173.147 M170.033 177.930 C 170.028 179.434,170.148 181.982,170.300 183.594 L 170.577 186.523 170.601 184.180 C 170.615 182.891,170.494 180.342,170.334 178.516 L 170.043 175.195 170.033 177.930 M123.362 186.914 C 123.463 191.426,123.619 195.200,123.709 195.302 C 123.954 195.579,123.700 182.500,123.421 180.469 C 123.288 179.502,123.262 182.402,123.362 186.914 M117.589 186.035 C 115.360 189.526,112.920 193.350,112.168 194.531 C 111.415 195.713,111.066 196.461,111.393 196.195 C 111.719 195.928,112.130 195.840,112.306 195.999 C 112.481 196.159,112.503 196.077,112.354 195.817 C 112.089 195.355,120.883 181.250,121.436 181.250 C 121.586 181.250,121.735 180.898,121.768 180.469 C 121.854 179.327,121.977 179.163,117.589 186.035 M333.931 180.571 C 333.853 181.052,333.880 184.434,333.990 188.086 L 334.191 194.727 334.381 187.364 C 334.548 180.867,334.356 177.963,333.931 180.571 M224.894 181.532 C 225.587 181.618,226.818 181.620,227.628 181.535 C 228.438 181.451,227.871 181.380,226.367 181.378 C 224.863 181.376,224.200 181.446,224.894 181.532 M220.220 182.252 C 218.681 183.087,215.933 190.019,216.545 191.524 C 216.650 191.781,216.749 191.685,216.766 191.309 C 216.783 190.933,216.983 190.625,217.211 190.625 C 217.438 190.625,217.522 190.459,217.396 190.256 C 216.311 188.500,219.536 182.592,221.881 182.041 C 222.948 181.790,223.031 181.715,222.266 181.696 C 221.729 181.683,220.808 181.933,220.220 182.252 M230.748 182.217 C 231.501 182.545,232.082 183.125,232.198 183.667 C 232.304 184.164,232.466 184.922,232.557 185.352 C 232.653 185.806,232.741 185.594,232.767 184.846 C 232.818 183.403,231.387 181.630,230.194 181.656 C 229.765 181.665,229.981 181.884,230.748 182.217 M264.768 181.942 C 265.049 182.139,267.132 182.331,269.396 182.368 C 275.481 182.467,275.605 182.616,274.258 188.159 C 273.342 191.927,273.063 192.634,272.606 192.352 C 272.408 192.229,272.295 192.362,272.354 192.647 C 272.413 192.933,272.157 193.140,271.782 193.111 C 271.408 193.081,271.199 193.213,271.316 193.403 C 271.437 193.599,269.216 193.750,266.234 193.750 C 262.261 193.750,260.938 193.628,260.938 193.262 C 260.938 192.146,263.475 182.591,263.850 182.294 C 264.107 182.091,264.055 182.026,263.710 182.119 C 262.838 182.353,260.076 193.635,260.821 193.921 C 262.208 194.454,271.306 194.144,272.176 193.535 C 274.688 191.775,276.305 183.820,274.403 182.574 C 273.322 181.865,263.765 181.239,264.768 181.942 M232.062 187.035 C 232.042 187.612,231.869 187.837,231.580 187.658 C 231.295 187.481,231.236 187.551,231.419 187.849 C 231.752 188.388,230.933 192.188,230.484 192.188 C 230.320 192.188,230.275 192.653,230.384 193.222 C 230.511 193.887,230.435 194.166,230.171 194.003 C 229.915 193.845,229.837 194.043,229.965 194.531 C 230.077 194.961,229.978 195.313,229.745 195.313 C 229.512 195.313,229.416 195.559,229.532 195.861 C 229.748 196.425,227.562 205.096,226.880 206.381 C 225.304 209.349,213.323 208.819,213.273 205.779 C 213.255 204.691,216.189 193.420,216.448 193.581 C 216.600 193.674,216.624 193.368,216.502 192.900 C 216.208 191.777,216.150 191.948,214.252 199.534 C 212.100 208.136,212.378 208.579,219.922 208.587 C 224.662 208.591,226.375 208.074,227.275 206.369 C 228.116 204.773,232.541 187.214,232.268 186.555 C 232.172 186.323,232.079 186.539,232.062 187.035 M170.844 190.234 C 170.844 192.275,170.910 193.110,170.990 192.090 C 171.071 191.069,171.071 189.399,170.990 188.379 C 170.910 187.358,170.844 188.193,170.844 190.234 M246.740 199.040 C 245.061 205.835,243.765 211.473,243.861 211.569 C 244.094 211.803,250.092 187.581,249.925 187.080 C 249.853 186.863,248.420 192.245,246.740 199.040 M350.233 191.504 C 349.933 192.561,347.517 201.801,345.342 210.207 C 344.473 213.564,343.652 216.597,343.519 216.945 C 343.327 217.444,343.512 217.567,344.392 217.525 C 345.241 217.484,345.308 217.433,344.674 217.308 C 343.866 217.150,343.857 217.086,344.396 215.311 C 344.702 214.302,346.174 208.730,347.667 202.930 C 349.160 197.129,350.492 191.987,350.627 191.504 C 350.762 191.021,350.784 190.625,350.677 190.625 C 350.570 190.625,350.370 191.021,350.233 191.504 M346.559 195.605 C 345.066 198.130,342.460 202.621,340.770 205.586 C 337.131 211.966,337.312 211.657,335.421 214.747 C 334.036 217.011,333.824 217.189,332.491 217.215 C 331.701 217.230,330.703 217.397,330.273 217.586 C 329.781 217.802,330.357 217.841,331.836 217.690 C 334.593 217.409,334.088 217.977,338.706 209.961 C 340.686 206.523,343.451 201.777,344.850 199.414 C 348.115 193.899,349.699 191.016,349.462 191.016 C 349.359 191.016,348.052 193.081,346.559 195.605 M185.023 192.285 C 184.286 193.482,180.918 199.285,176.466 207.031 C 174.428 210.576,172.242 214.355,171.608 215.430 L 170.455 217.383 166.478 217.494 L 162.500 217.605 162.470 213.979 C 162.454 211.984,162.111 206.133,161.708 200.977 C 160.942 191.180,160.965 193.568,161.782 208.887 L 162.266 217.969 166.460 217.969 L 170.653 217.969 172.762 214.258 C 173.922 212.218,174.959 210.636,175.066 210.743 C 175.173 210.850,175.264 210.718,175.269 210.449 C 175.282 209.702,182.263 197.637,182.556 197.855 C 182.697 197.961,182.724 197.930,182.617 197.786 C 182.439 197.549,184.028 194.467,185.453 192.285 C 185.769 191.802,185.923 191.406,185.796 191.406 C 185.669 191.406,185.321 191.802,185.023 192.285 M320.950 197.741 C 320.169 200.809,318.851 205.957,318.020 209.180 C 317.189 212.402,316.397 215.510,316.261 216.086 C 316.104 216.755,315.697 217.194,315.136 217.303 C 314.351 217.454,314.367 217.477,315.286 217.525 C 316.293 217.577,316.344 217.458,317.773 211.719 C 318.576 208.496,319.398 205.859,319.600 205.859 C 319.802 205.859,319.863 205.689,319.734 205.480 C 319.605 205.272,320.229 202.273,321.121 198.817 C 322.012 195.361,322.658 192.449,322.555 192.347 C 322.453 192.245,321.730 194.672,320.950 197.741 M324.228 193.945 C 324.083 195.021,324.317 200.602,324.799 207.617 C 325.095 211.914,325.349 216.001,325.364 216.699 C 325.390 217.959,325.404 217.968,327.246 217.901 L 329.102 217.832 327.481 217.685 L 325.861 217.537 325.629 214.140 C 325.501 212.271,325.206 207.051,324.972 202.539 C 324.590 195.140,324.385 192.777,324.228 193.945 M114.746 197.165 C 116.304 197.239,118.853 197.239,120.410 197.165 C 121.968 197.091,120.693 197.030,117.578 197.030 C 114.463 197.030,113.188 197.091,114.746 197.165 M276.362 203.613 C 276.800 204.901,279.807 216.294,279.865 216.887 C 279.944 217.686,280.469 218.317,280.469 217.613 C 280.469 217.345,279.773 214.591,278.924 211.491 C 278.074 208.392,277.263 205.242,277.122 204.491 C 276.981 203.740,276.715 203.125,276.531 203.125 C 276.347 203.125,276.271 203.345,276.362 203.613 M259.675 203.799 C 260.377 203.886,261.432 203.884,262.019 203.795 C 262.606 203.706,262.031 203.634,260.742 203.637 C 259.453 203.639,258.973 203.712,259.675 203.799 M257.614 204.395 C 257.518 204.663,256.816 207.520,256.054 210.742 C 255.292 213.965,254.563 216.953,254.434 217.383 C 254.302 217.823,254.349 218.023,254.541 217.840 C 254.884 217.516,258.191 203.906,257.928 203.906 C 257.851 203.906,257.710 204.126,257.614 204.395 M263.672 204.163 C 263.672 204.956,266.845 217.391,267.109 217.631 C 267.259 217.768,267.734 217.737,268.164 217.561 C 268.916 217.254,268.913 217.241,268.093 217.215 C 267.115 217.183,267.274 217.615,265.411 209.961 C 264.099 204.570,263.672 203.146,263.672 204.163 M123.823 212.030 L 124.014 214.648 124.137 212.345 C 124.205 211.079,124.120 209.900,123.947 209.727 C 123.774 209.553,123.718 210.589,123.823 212.030 M106.250 210.059 C 106.250 210.409,122.581 210.362,122.933 210.010 C 123.067 209.876,119.368 209.766,114.714 209.766 C 110.059 209.766,106.250 209.897,106.250 210.059 M243.171 213.379 C 243.012 214.185,242.770 214.845,242.632 214.846 C 242.495 214.846,242.352 215.453,242.314 216.193 C 242.234 217.765,243.494 218.148,247.852 217.873 C 250.174 217.727,250.168 217.725,247.266 217.647 C 242.553 217.519,242.564 217.526,243.231 214.971 C 243.540 213.789,243.717 212.618,243.626 212.368 C 243.534 212.118,243.329 212.573,243.171 213.379 M306.641 217.573 C 306.242 217.827,306.553 217.870,307.617 217.707 C 309.548 217.411,309.877 217.186,308.366 217.193 C 307.739 217.197,306.963 217.368,306.641 217.573 M346.340 217.627 C 347.314 218.010,350.000 218.046,350.000 217.676 C 349.999 217.515,349.012 217.373,347.804 217.361 C 346.487 217.348,345.902 217.455,346.340 217.627 M288.188 217.854 C 288.674 217.948,289.377 217.944,289.751 217.847 C 290.124 217.749,289.727 217.672,288.867 217.677 C 288.008 217.681,287.702 217.761,288.188 217.854 " stroke="none" fill="#060c19" fill-rule="evenodd"></path><path id="path3" d="M131.832 159.798 C 131.329 159.994,131.939 160.111,133.561 160.129 C 134.940 160.144,135.977 160.066,135.866 159.955 C 135.509 159.597,132.632 159.485,131.832 159.798 M128.613 160.035 C 128.989 160.133,129.604 160.133,129.980 160.035 C 130.356 159.937,130.049 159.856,129.297 159.856 C 128.545 159.856,128.237 159.937,128.613 160.035 M138.033 170.508 C 138.034 172.656,138.100 173.485,138.179 172.350 C 138.258 171.215,138.257 169.457,138.177 168.444 C 138.097 167.431,138.032 168.359,138.033 170.508 M225.684 171.384 C 227.241 171.458,229.790 171.458,231.348 171.384 C 232.905 171.310,231.631 171.249,228.516 171.249 C 225.400 171.249,224.126 171.310,225.684 171.384 M151.953 171.777 C 151.953 171.938,155.937 172.020,160.807 171.958 C 167.700 171.871,169.733 171.957,169.981 172.349 C 170.217 172.720,170.302 172.672,170.307 172.168 C 170.312 171.536,169.617 171.484,161.133 171.484 C 156.084 171.484,151.953 171.616,151.953 171.777 M185.021 171.777 C 184.921 171.938,188.895 172.020,193.853 171.958 C 200.872 171.871,202.936 171.958,203.185 172.349 C 203.420 172.720,203.505 172.672,203.510 172.168 C 203.516 171.446,185.463 171.064,185.021 171.777 M218.848 171.754 C 219.224 171.852,219.839 171.852,220.215 171.754 C 220.591 171.655,220.283 171.575,219.531 171.575 C 218.779 171.575,218.472 171.655,218.848 171.754 M259.277 171.777 C 262.769 171.841,268.481 171.841,271.973 171.777 C 275.464 171.712,272.607 171.659,265.625 171.659 C 258.643 171.659,255.786 171.712,259.277 171.777 M296.093 171.777 C 296.093 171.938,299.022 172.018,302.602 171.954 C 307.613 171.864,309.184 171.954,309.432 172.345 C 309.671 172.722,309.755 172.677,309.760 172.168 C 309.765 171.543,309.182 171.484,302.930 171.484 C 299.170 171.484,296.094 171.616,296.093 171.777 M324.591 171.774 L 333.947 171.889 334.091 174.128 L 334.235 176.367 334.208 174.023 L 334.180 171.680 324.707 171.669 L 315.234 171.658 324.591 171.774 M357.403 171.777 C 364.440 171.860,367.035 172.016,367.261 172.370 C 367.475 172.708,367.568 172.647,367.572 172.168 C 367.578 171.532,366.884 171.491,357.715 171.575 L 347.852 171.665 357.403 171.777 M170.419 176.172 C 170.419 177.139,170.495 177.534,170.588 177.051 C 170.681 176.567,170.681 175.776,170.588 175.293 C 170.495 174.810,170.419 175.205,170.419 176.172 M138.420 181.445 C 138.419 183.379,138.485 184.219,138.567 183.313 C 138.649 182.406,138.650 180.824,138.569 179.797 C 138.488 178.770,138.421 179.512,138.420 181.445 M122.581 179.004 C 122.494 179.272,122.540 180.107,122.683 180.859 C 122.933 182.168,122.946 182.147,122.995 180.371 C 123.046 178.546,122.894 178.043,122.581 179.004 M288.393 180.664 C 288.396 181.738,288.472 182.131,288.562 181.538 C 288.651 180.944,288.649 180.065,288.556 179.584 C 288.464 179.104,288.390 179.590,288.393 180.664 M334.520 184.375 C 334.520 186.631,334.584 187.554,334.663 186.426 C 334.742 185.298,334.742 183.452,334.663 182.324 C 334.584 181.196,334.520 182.119,334.520 184.375 M170.815 182.617 C 170.818 183.691,170.894 184.084,170.983 183.491 C 171.073 182.897,171.071 182.018,170.978 181.538 C 170.885 181.057,170.812 181.543,170.815 182.617 M171.222 189.258 C 171.224 190.762,171.294 191.329,171.379 190.519 C 171.463 189.708,171.462 188.478,171.376 187.784 C 171.289 187.091,171.220 187.754,171.222 189.258 M123.181 190.820 C 123.182 192.539,123.251 193.194,123.333 192.275 C 123.416 191.356,123.415 189.950,123.331 189.150 C 123.247 188.350,123.179 189.102,123.181 190.820 M323.320 190.757 C 323.210 191.045,323.261 191.880,323.434 192.613 C 323.740 193.911,323.749 193.898,323.788 192.090 C 323.829 190.212,323.686 189.805,323.320 190.757 M138.811 194.336 C 138.809 196.270,138.875 197.110,138.957 196.203 C 139.039 195.297,139.040 193.715,138.959 192.688 C 138.879 191.661,138.812 192.402,138.811 194.336 M334.883 194.531 C 334.883 195.713,334.956 196.196,335.045 195.605 C 335.135 195.015,335.135 194.048,335.045 193.457 C 334.956 192.866,334.883 193.350,334.883 194.531 M160.664 194.922 C 160.664 196.104,160.737 196.587,160.827 195.996 C 160.916 195.405,160.916 194.438,160.827 193.848 C 160.737 193.257,160.664 193.740,160.664 194.922 M264.551 193.648 C 265.786 193.726,267.808 193.726,269.043 193.648 C 270.278 193.571,269.268 193.507,266.797 193.507 C 264.326 193.507,263.315 193.571,264.551 193.648 M171.484 195.336 C 171.484 195.993,171.637 196.436,171.823 196.321 C 172.137 196.127,171.966 194.141,171.634 194.141 C 171.552 194.141,171.484 194.678,171.484 195.336 M322.098 195.145 C 321.955 195.718,321.912 196.261,322.004 196.353 C 322.096 196.445,322.289 196.052,322.433 195.480 C 322.577 194.907,322.619 194.364,322.527 194.272 C 322.435 194.180,322.242 194.573,322.098 195.145 M323.935 197.656 C 323.935 198.623,324.011 199.019,324.104 198.535 C 324.197 198.052,324.197 197.261,324.104 196.777 C 324.011 196.294,323.935 196.689,323.935 197.656 M161.044 201.172 C 161.044 202.139,161.120 202.534,161.213 202.051 C 161.306 201.567,161.306 200.776,161.213 200.293 C 161.120 199.810,161.044 200.205,161.044 201.172 M139.194 205.078 C 139.194 206.689,139.263 207.349,139.347 206.543 C 139.431 205.737,139.431 204.419,139.347 203.613 C 139.263 202.808,139.194 203.467,139.194 205.078 M324.330 204.883 C 324.333 205.957,324.409 206.350,324.499 205.756 C 324.589 205.163,324.586 204.284,324.494 203.803 C 324.401 203.323,324.328 203.809,324.330 204.883 M259.269 204.188 C 259.962 204.274,261.193 204.276,262.003 204.191 C 262.813 204.107,262.246 204.036,260.742 204.034 C 259.238 204.033,258.575 204.102,259.269 204.188 M263.127 205.011 C 262.972 205.263,262.987 205.471,263.161 205.475 C 263.334 205.478,263.213 205.670,262.891 205.902 C 262.396 206.258,262.411 206.289,262.988 206.104 C 263.454 205.954,263.682 206.098,263.703 206.555 C 263.720 206.924,263.813 207.036,263.909 206.802 C 264.186 206.135,263.460 204.473,263.127 205.011 M161.440 208.008 C 161.443 209.082,161.519 209.475,161.608 208.881 C 161.698 208.288,161.696 207.409,161.603 206.928 C 161.510 206.448,161.437 206.934,161.440 208.008 M217.480 208.100 C 218.608 208.179,220.454 208.179,221.582 208.100 C 222.710 208.022,221.787 207.957,219.531 207.957 C 217.275 207.957,216.353 208.022,217.480 208.100 M324.743 211.914 C 324.745 213.633,324.813 214.287,324.896 213.369 C 324.978 212.450,324.977 211.044,324.893 210.244 C 324.809 209.444,324.742 210.195,324.743 211.914 M344.196 210.156 C 344.196 210.479,344.347 211.094,344.531 211.523 C 344.743 212.016,344.867 212.088,344.867 211.719 C 344.867 211.396,344.716 210.781,344.531 210.352 C 344.320 209.859,344.196 209.787,344.196 210.156 M121.759 210.441 L 123.401 210.590 123.539 213.010 L 123.678 215.430 123.753 212.793 L 123.828 210.156 121.973 210.224 L 120.117 210.293 121.759 210.441 M161.836 214.844 C 161.836 216.025,161.909 216.509,161.999 215.918 C 162.088 215.327,162.088 214.360,161.999 213.770 C 161.909 213.179,161.836 213.662,161.836 214.844 M139.524 214.918 C 139.454 216.731,139.916 217.628,140.463 216.743 C 140.634 216.466,140.577 216.390,140.317 216.551 C 140.034 216.725,139.837 216.179,139.741 214.951 L 139.594 213.086 139.524 214.918 M334.606 216.992 C 334.003 217.912,333.746 217.973,330.167 218.050 L 326.367 218.131 330.020 218.260 C 333.772 218.393,334.401 218.207,335.191 216.731 C 335.755 215.679,335.348 215.860,334.606 216.992 M280.619 217.090 L 280.786 217.969 273.820 217.969 C 267.514 217.969,266.837 217.904,266.676 217.285 C 266.508 216.644,266.494 216.645,266.452 217.297 C 266.383 218.344,266.994 218.436,274.411 218.498 C 281.418 218.556,281.552 218.525,280.824 216.992 C 280.478 216.264,280.464 216.271,280.619 217.090 M153.546 217.480 C 153.523 217.850,151.937 217.969,147.005 217.969 C 143.424 217.969,140.595 218.069,140.719 218.193 C 140.971 218.445,153.571 218.434,153.824 218.181 C 153.914 218.091,153.895 217.787,153.782 217.505 C 153.629 217.121,153.570 217.115,153.546 217.480 M170.874 217.564 C 170.666 217.771,168.566 217.997,166.206 218.067 L 161.914 218.193 166.261 218.276 C 169.722 218.342,170.707 218.240,171.094 217.773 C 171.631 217.126,171.468 216.970,170.874 217.564 M298.047 217.513 C 298.047 217.829,296.887 217.969,294.271 217.969 C 289.620 217.969,289.596 218.255,294.234 218.411 C 297.452 218.520,299.077 218.087,298.314 217.324 C 298.167 217.177,298.047 217.262,298.047 217.513 M284.895 218.166 C 284.896 218.522,289.805 218.529,290.159 218.174 C 290.236 218.098,289.082 217.976,287.596 217.904 C 285.958 217.825,284.894 217.928,284.895 218.166 M83.594 218.239 C 90.834 218.519,97.657 218.530,97.657 218.262 C 97.657 218.101,93.833 218.004,89.160 218.047 C 84.487 218.091,81.982 218.177,83.594 218.239 M128.418 218.260 C 130.405 218.331,133.657 218.331,135.645 218.260 C 137.632 218.189,136.006 218.131,132.031 218.131 C 128.057 218.131,126.431 218.189,128.418 218.260 M182.343 218.260 C 184.125 218.332,186.938 218.332,188.593 218.259 C 190.248 218.186,188.789 218.126,185.352 218.127 C 181.914 218.127,180.560 218.187,182.343 218.260 M241.883 218.185 C 242.002 218.304,244.952 218.402,248.438 218.402 C 251.923 218.402,254.873 218.304,254.992 218.185 C 255.111 218.066,252.161 217.969,248.437 217.969 C 244.714 217.969,241.764 218.066,241.883 218.185 M345.313 218.197 C 346.540 218.486,353.907 218.541,353.907 218.262 C 353.906 218.101,351.841 217.989,349.316 218.014 C 346.792 218.039,344.990 218.121,345.313 218.197 M225.098 218.629 C 225.474 218.727,226.089 218.727,226.465 218.629 C 226.841 218.530,226.533 218.450,225.781 218.450 C 225.029 218.450,224.722 218.530,225.098 218.629 M213.983 219.041 C 215.766 219.113,218.579 219.113,220.233 219.040 C 221.888 218.967,220.430 218.908,216.992 218.908 C 213.555 218.909,212.201 218.968,213.983 219.041 " stroke="none" fill="#36514f" fill-rule="evenodd"></path><path id="path4" d="M137.599 161.523 C 137.603 162.383,137.683 162.688,137.776 162.202 C 137.870 161.717,137.866 161.013,137.768 160.640 C 137.671 160.267,137.594 160.664,137.599 161.523 M138.372 185.938 C 138.372 186.689,138.452 186.997,138.551 186.621 C 138.649 186.245,138.649 185.630,138.551 185.254 C 138.452 184.878,138.372 185.186,138.372 185.938 M334.481 189.844 C 334.481 190.811,334.558 191.206,334.651 190.723 C 334.744 190.239,334.744 189.448,334.651 188.965 C 334.558 188.481,334.481 188.877,334.481 189.844 M111.893 196.060 C 112.015 196.257,111.893 196.507,111.624 196.615 C 111.354 196.724,111.550 196.827,112.060 196.844 C 112.840 196.870,112.910 196.783,112.500 196.289 C 111.969 195.649,111.539 195.487,111.893 196.060 M119.434 196.760 C 119.917 196.853,120.708 196.853,121.191 196.760 C 121.675 196.667,121.279 196.591,120.313 196.591 C 119.346 196.591,118.950 196.667,119.434 196.760 M138.763 198.828 C 138.763 199.580,138.843 199.888,138.941 199.512 C 139.039 199.136,139.039 198.521,138.941 198.145 C 138.843 197.769,138.763 198.076,138.763 198.828 M139.169 209.375 C 139.169 210.342,139.245 210.737,139.338 210.254 C 139.431 209.771,139.431 208.979,139.338 208.496 C 139.245 208.013,139.169 208.408,139.169 209.375 " stroke="none" fill="#2d4246" fill-rule="evenodd"></path></g></svg>